<svg width="61" height="61" viewBox="0 0 61 61" fill="none" xmlns="http://www.w3.org/2000/svg">
<g clip-path="url(#clip0_71_8)">
<path d="M51.7323 37.8788L58.5761 45.0038L28.4823 60.0975C28.4823 60.0975 24.5448 62.0663 22.6698 58.9725C15.1698 46.785 51.7323 37.8788 51.7323 37.8788Z" fill="#256382"/>
<path d="M27.6386 51.1913C27.6386 51.1913 21.9198 53.3475 22.9511 57.3788C24.0761 61.5975 28.6698 59.0663 28.6698 59.0663L57.2636 45.0038C57.2636 45.0038 55.6698 40.5038 58.5761 37.5038L27.6386 51.1913Z" fill="#D9E3E8"/>
<path d="M32.5137 9.00378L59.8887 37.2225L27.5449 50.6288L6.82617 16.3163L32.5137 9.00378Z" fill="#42ADE2"/>
<path d="M57.1699 40.5975L38.0449 48.8475L56.7949 39.7538L57.1699 40.5975Z" fill="#94989B"/>
<path d="M56.8887 43.035L36.5449 51.9413L56.5137 42.1913L56.8887 43.035Z" fill="#94989B"/>
<path d="M57.0762 44.4413L31.1074 56.3475L56.7012 43.5975L57.0762 44.4413Z" fill="#94989B"/>
<path d="M22.5762 58.8788C19.3887 51.8475 27.5449 50.6288 27.5449 50.6288L6.82617 16.3163C6.82617 16.3163 2.13867 16.2225 2.13867 21.3788C2.13867 23.535 3.07617 25.1288 3.07617 25.1288L22.5762 58.8788Z" fill="#428BC1"/>
<path d="M8.41992 30.8475L1.57617 37.9725L31.6699 53.0663C31.6699 53.0663 35.6074 55.035 37.4824 51.9413C44.9824 39.7538 8.41992 30.8475 8.41992 30.8475Z" fill="#547725"/>
<path d="M32.4199 44.16C32.4199 44.16 38.1387 46.3163 37.1074 50.3475C35.9824 54.5663 31.4824 52.035 31.4824 52.035L2.88867 37.9725C2.88867 37.9725 4.48242 33.4725 1.57617 30.4725L32.4199 44.16Z" fill="#D9E3E8"/>
<path d="M27.6387 1.97253L0.263672 30.1913L32.6074 43.5975L53.3262 9.28503L27.6387 1.97253Z" fill="#83BF4F"/>
<path d="M3.26367 32.7225L22.0137 41.8163L2.88867 33.5663L3.26367 32.7225Z" fill="#94989B"/>
<path d="M3.63867 35.16L23.5137 44.91L3.16992 36.0038L3.63867 35.16Z" fill="#94989B"/>
<path d="M3.45117 36.5663L28.9512 49.3163L2.98242 37.41L3.45117 36.5663Z" fill="#94989B"/>
<path d="M37.5762 51.8475C40.7637 44.8163 32.6074 43.5975 32.6074 43.5975L53.3262 9.28503C53.3262 9.28503 58.0137 9.19128 58.0137 14.3475C58.0137 16.5038 57.0762 18.0975 57.0762 18.0975L37.5762 51.8475Z" fill="#699635"/>
<path d="M53.42 25.035L59.1387 31.035L33.7325 43.6913C33.7325 43.6913 30.3575 45.285 28.7637 42.7538C22.5762 32.535 53.42 25.035 53.42 25.035Z" fill="#962C2C"/>
<path d="M33.0763 36.285C33.0763 36.285 28.2013 38.0663 29.1388 41.535C30.0763 45.0975 33.92 42.9413 33.92 42.9413L58.0138 31.035C58.0138 31.035 56.7013 27.285 59.1388 24.7538L33.0763 36.285Z" fill="#D9E3E8"/>
<path d="M37.2012 0.660034L60.2637 24.4725L32.9824 35.8163L15.4512 6.84753L37.2012 0.660034Z" fill="#ED4C5C"/>
<path d="M37.8574 6.09753L42.3574 11.0663L25.7637 17.3475L21.8262 10.9725L37.8574 6.09753Z" fill="white"/>
<path d="M58.0137 27.3788L41.8887 34.2225L57.6387 26.535L58.0137 27.3788Z" fill="#94989B"/>
<path d="M57.8262 29.4413L40.5762 36.8475L57.4512 28.5975L57.8262 29.4413Z" fill="#94989B"/>
<path d="M58.0137 30.5663L36.0762 40.5975L57.5449 29.7225L58.0137 30.5663Z" fill="#94989B"/>
<path d="M28.8574 42.7538C26.2324 36.8476 33.0762 35.8163 33.0762 35.8163L15.4512 6.84757C15.4512 6.84757 11.4199 6.75383 11.4199 11.0663C11.4199 12.8476 12.1699 14.2538 12.1699 14.2538L28.8574 42.7538Z" fill="#C94747"/>
</g>
<defs>
<clipPath id="clip0_71_8">
<rect width="60" height="60" fill="white" transform="translate(0.263672 0.660034)"/>
</clipPath>
</defs>
</svg>
